# xmcd
#
# Track frame offsets: 
#        150
#        22454
#        42346
#        75877
#        90052
#        124410
#        150176
#        163503
#        176446
#        196688
#        215359
#        236837
#
# Disc length: 3497 seconds
#
# Revision: 0
# Processed by: cddbd v1.5.2PL0 Copyright (c) Steve Scherf et al.
# Submitted via: ExactAudioCopy v0.99pb4
#
DISCID=880da70c
DTITLE=Buddy Guy - Skin Deep
DYEAR=2008
DGENRE=Blues
TTITLE0=Best Damn Fool
TTITLE1=Too Many Tears
TTITLE2=Lyin' Like a Dog
TTITLE3=Show Me the Money
TTITLE4=Every Time I Sing the Blues
TTITLE5=Out in the Woods
TTITLE6=Hammer and a Nail
TTITLE7=That's My Home
TTITLE8=Skin Deep
TTITLE9=Who's Gonna Fill Those Shoes
TTITLE10=Smell the Funk
TTITLE11=I Found Happiness
EXTD=
EXTT0=
EXTT1=
EXTT2=
EXTT3=
EXTT4=
EXTT5=
EXTT6=
EXTT7=
EXTT8=
EXTT9=
EXTT10=
EXTT11=
PLAYORDER=
